<svg id="Layer_1" data-name="Layer 1" xmlns="http://www.w3.org/2000/svg" viewBox="0 0 32 32">
  <defs>
    <style>
      .cls-1 {
        fill: #1c1c1c;
      }
    </style>
  </defs>
  <title>intagram</title>
  <path class="cls-1" d="M22.929,7.595a1.693,1.693,0,1,0,1.676,1.747,1.718,1.718,0,0,0-1.676-1.747" transform="translate(-0.167 0)"/>
  <path class="cls-1" d="M16.175,20.483a4.483,4.483,0,1,1,4.48-4.493,4.479,4.479,0,0,1-4.48,4.493M16.277,9.4a6.6,6.6,0,1,0,6.482,6.618A6.624,6.624,0,0,0,16.277,9.4" transform="translate(-0.167 0)"/>
  <path class="cls-1" d="M26.833,21.561a5.036,5.036,0,0,1-4.116,5.018,5.152,5.152,0,0,1-1.006.085c-3.693,0-7.386.008-11.079,0A5.025,5.025,0,0,1,5.6,22.628a5.719,5.719,0,0,1-.1-1.217c0-1.8,0-3.6,0-5.406,0-1.82,0-3.64,0-5.459A5.035,5.035,0,0,1,6.674,7.153a4.958,4.958,0,0,1,3.949-1.817c3.7,0,7.4-.009,11.1,0A5.017,5.017,0,0,1,26.755,9.5a4.95,4.95,0,0,1,.08.926c0,3.711.007,7.421,0,11.132M27.911,0H4.423A4.255,4.255,0,0,0,.167,4.256V27.744A4.255,4.255,0,0,0,4.423,32H27.911a4.256,4.256,0,0,0,4.256-4.256V4.256A4.256,4.256,0,0,0,27.911,0" transform="translate(-0.167 0)"/>
</svg>
