<svg id="Layer_1" data-name="Layer 1" xmlns="http://www.w3.org/2000/svg" viewBox="0 0 32 32">
  <defs>
    <style>
      .cls-1 {
        fill: #1c1c1c;
      }
    </style>
  </defs>
  <title>linked</title>
  <path class="cls-1" d="M25.663,24.262q-1.764-.024-3.529,0c-0.285,0-.346-0.088-0.345-0.355q0.015-3.481,0-6.965a2.136,2.136,0,0,0-1.826-2.18,2.111,2.111,0,0,0-2.358,2.174c-0.006,2.3,0,4.6,0,6.9,0,0.481.03,0.414-.421,0.415-1.156,0-2.311-.008-3.467.007-0.267,0-.326-0.083-0.325-0.336q0.01-5.98,0-11.963c0-.243.061-0.32,0.312-0.317q1.8,0.02,3.592,0a0.255,0.255,0,0,1,.314.321c-0.016.412-.005,0.824-0.005,1.237a4.909,4.909,0,0,1,2.845-1.749,4.2,4.2,0,0,1,3.106.616A4.866,4.866,0,0,1,26,16.449c0,2.488,0,4.977.007,7.465,0,0.275-.069.351-0.346,0.348M11,6.935A2.507,2.507,0,1,1,8.654,4.244,2.5,2.5,0,0,1,11,6.935M10.278,24.261q-1.781-.021-3.562,0c-0.271,0-.323-0.089-0.322-0.338C6.4,21.934,6.4,19.945,6.4,17.956s0.006-3.978-.007-5.967c0-.28.077-0.348,0.349-0.345,1.177,0.016,2.354.014,3.53,0,0.251,0,.342.055,0.342,0.324q-0.012,5.982,0,11.965c0,0.266-.081.328-0.335,0.326M27.744,0H4.256A4.255,4.255,0,0,0,0,4.256V27.744A4.255,4.255,0,0,0,4.256,32H27.744A4.256,4.256,0,0,0,32,27.744V4.256A4.256,4.256,0,0,0,27.744,0" transform="translate(0 0)"/>
</svg>
