<svg id="Layer_1" data-name="Layer 1" xmlns="http://www.w3.org/2000/svg" viewBox="0 0 32 32">
  <defs>
    <style>
      .cls-1 {
        fill: #1c1c1c;
      }
    </style>
  </defs>
  <title>pinterest</title>
  <path class="cls-1" d="M24.022,17.143a6.056,6.056,0,0,1-5.034,3.71,4.255,4.255,0,0,1-3.066-.915c-0.651-.5-0.67-0.465-0.838.344a17.505,17.505,0,0,1-1.21,4.006,6.128,6.128,0,0,1-1.882,2.379,19.8,19.8,0,0,1,.865-8.26c0.246-.9.457-1.818,0.689-2.727a0.781,0.781,0,0,0-.065-0.567,4.284,4.284,0,0,1,.777-4.494,1.852,1.852,0,0,1,2.8.206,1.553,1.553,0,0,1,.226.827,7.775,7.775,0,0,1-.483,2.436,10.392,10.392,0,0,0-.654,2.847A1.58,1.58,0,0,0,17.7,18.677a2.906,2.906,0,0,0,2.925-1.354A7.9,7.9,0,0,0,21.758,10.6a4.281,4.281,0,0,0-3.364-3.122,6.324,6.324,0,0,0-7.516,4.96,4.075,4.075,0,0,0,.6,3.066,1.8,1.8,0,0,1,.137,1.843,0.4,0.4,0,0,1-.6.266,3.546,3.546,0,0,1-2.477-3,7.623,7.623,0,0,1,4.507-8.4,9.355,9.355,0,0,1,8.508.314,6.29,6.29,0,0,1,3.436,5.626,9.98,9.98,0,0,1-.966,5M27.744,0H4.256A4.255,4.255,0,0,0,0,4.256V27.744A4.255,4.255,0,0,0,4.256,32H27.744A4.256,4.256,0,0,0,32,27.744V4.256A4.256,4.256,0,0,0,27.744,0" transform="translate(0 0)"/>
</svg>
